<svg xmlns="http://www.w3.org/2000/svg" version="1.1" xmlns:xlink="http://www.w3.org/1999/xlink" xmlns:svgjs="http://svgjs.dev/svgjs" width="100%" height="100%" viewBox="0 0 1000 600"><rect width="1000" height="600" x="0" y="0" fill="#00214d"/><g><circle r="166.66666666666666" cx="317.0464426676432" cy="339.2686678194285" fill="#8000ff" transform="matrix(0.8312288231300242,0,0,0.8312288231300244,0,17.99011024561112)"/><path d="M333.888330419637 291.76320245698594L333.888330419637 408.7340419302717Q333.888330419637 411.8584220230458 332.5790663807602 413.0784180592719Q331.2698023418834 414.2686580946144 328.1454222491094 414.2686580946144L328.1454222491094 414.2686580946144L305.8581775873207 414.2686580946144Q302.7337974945466 414.2686580946144 301.4245334556699 413.0784180592719Q300.1152694167931 411.8584220230458 300.1152694167931 408.7340419302717L300.1152694167931 408.7340419302717L300.1152694167931 291.76320245698594L268.93098049081925 291.76320245698594Q266.43147641659993 291.76320245698594 265.15196837860674 290.9300344322462L265.15196837860674 290.9300344322462Q262.4441722982025 289.0554063765818 259.5578402124969 286.4368782988282Q256.7012641276749 283.8183502210747 253.33883602783223 280.15836211239645L253.33883602783223 280.15836211239645Q252.29737599690753 278.7895860717525 252.29737599690753 277.9564180470128L252.29737599690753 277.9564180470128Q252.29737599690753 277.0042260187388 253.33883602783223 275.8734979851634L253.33883602783223 275.8734979851634Q256.7012641276749 272.21350987648515 259.5578402124969 269.5949817987316Q262.4441722982025 266.9764537209781 265.15196837860674 265.10182566531364L265.15196837860674 265.10182566531364Q266.63976842278487 264.2686576405739 268.93098049081925 264.2686576405739L268.93098049081925 264.2686576405739L365.16188734826164 264.2686576405739Q367.69114742336444 264.2686576405739 368.94089946047416 265.10182566531364L368.94089946047416 265.10182566531364Q371.6486955408783 266.9764537209781 374.5945396283511 269.5949817987316Q377.51062771494014 272.21350987648515 380.7540318112485 275.8734979851634L380.7540318112485 275.8734979851634Q381.7954918421733 277.2422740258073 381.7954918421733 278.07544205054705L381.7954918421733 278.07544205054705Q381.7954918421733 278.9978780779375 380.7540318112485 280.15836211239645L380.7540318112485 280.15836211239645Q377.51062771494014 283.8183502210747 374.5945396283511 286.4368782988282Q371.6486955408783 289.0554063765818 368.94089946047416 290.9300344322462L368.94089946047416 290.9300344322462Q367.4828554171795 291.76320245698594 365.16188734826164 291.76320245698594L365.16188734826164 291.76320245698594L333.888330419637 291.76320245698594Z " fill="#ffe8f5" transform="matrix(0.8312288231300242,0,0,0.8312288231300244,0,17.99011024561112)"/><path d="M629.9814478740178 388.54067624476994L629.9814478740178 388.54067624476994Q636.8262627883995 388.54067624476994 640.6881233432063 387.12909962818543Q644.5766174190807 385.71752301160086 646.7339326255589 383.6667418893931Q648.8912478320373 381.6159607671854 650.4892590960952 379.53854612391L650.4892590960952 379.53854612391Q651.9807362758826 377.6741996491757 652.966176555385 376.7420264118086Q653.9516168348874 375.8098531744414 655.7360627464188 375.4103503584269L655.7360627464188 375.4103503584269Q657.2275399262063 374.9575805002772 660.5567300596605 374.82441289493903Q663.8859201931145 374.66461176853323 667.188476805501 374.66461176853323Q670.5176669389551 374.66461176853323 671.8227094712691 374.8510464160066L671.8227094712691 374.8510464160066Q673.793590030274 374.9575805002772 674.5393286201677 375.623418526968L674.5393286201677 375.623418526968Q675.2850672100614 376.2626230325912 675.4981353786025 378.41993823906944L675.4981353786025 378.41993823906944Q675.7644705892787 381.4028925986443 675.817737631414 385.5310883641274Q675.8710046735494 389.6592841296105 675.6845700260759 392.64223848918544L675.6845700260759 392.64223848918544Q675.5780359418054 393.6010452476202 675.3383342521967 394.2402497532434Q675.098632562588 394.90608777993424 674.3528939726942 396.2111303122482L674.3528939726942 396.2111303122482Q673.4207207353271 397.70260749203567 670.7041015864286 400.5523942462724Q667.9874824375299 403.4288145215767 662.7406787872063 406.4650359232869Q657.5205086579502 409.5012573249971 649.2108500848489 411.65857253147533Q640.9278250328149 413.8158877379536 628.8628399891772 413.8158877379536L628.8628399891772 413.8158877379536Q615.9455822713753 413.8158877379536 604.7062363808342 410.48669760449945Q593.4668904902932 407.15750747104534 584.9974307907859 399.3006187560937Q576.5013375702109 391.4437300411419 571.7872043412399 378.0470689441226Q567.0464375912012 364.6504078471032 567.0464375912012 344.62200000424326L567.0464375912012 344.62200000424326Q567.0464375912012 322.3297428706345 574.7701587008148 306.7491330460693Q582.4938798104283 291.1418897004364 596.7428135816119 283.01866577480837Q610.965113831728 274.86880832811266 630.4342177321676 274.86880832811266L630.4342177321676 274.86880832811266Q644.1238475609309 274.86880832811266 652.4068726129648 277.66532804021415Q660.6898976649985 280.48848127338323 665.0045280779551 284.2704412649871Q669.292524969844 288.052401256591 671.0769708813754 290.87555448976L671.0769708813754 290.87555448976Q671.7428089080662 291.91426181139775 672.0091441187426 292.6866339223591Q672.3021128504865 293.48563955438806 672.3820134136894 295.1901849027166L672.3820134136894 295.1901849027166Q672.6749821454334 297.42740067239777 672.5418145400952 301.74203108535426Q672.3820134136894 306.03002797724315 671.8227094712691 309.305951068562L671.8227094712691 309.305951068562Q671.4498401763223 311.3833657118374 670.6242010232256 312.02257021746055L670.6242010232256 312.02257021746055Q670.2513317282787 312.39543951240745 669.292524969844 312.6884082441514Q668.3603517324768 312.9813769758954 666.4960052577426 312.9813769758954L666.4960052577426 312.9813769758954Q663.5130508981676 312.9813769758954 659.7577244276314 312.7416752862867Q656.0023979570952 312.501973596678 654.1380514823609 312.209004864934L654.1380514823609 312.209004864934Q651.9008357126797 311.83613556998716 650.862128391042 311.1436640222287Q649.8234210694044 310.45119247447025 648.8113472688343 308.9330817736152L648.8113472688343 308.9330817736152Q647.1068019205057 306.5094313564606 643.0052396760904 303.3134088283446Q638.8770439106072 300.1440198212963 629.4221439315976 300.1440198212963L629.4221439315976 300.1440198212963Q616.1320169188488 300.1440198212963 607.5027560929357 310.397925432335Q598.9001287880902 320.65183104337365 598.9001287880902 343.5832926826056L598.9001287880902 343.5832926826056Q598.9001287880902 366.43485375863463 607.9288924300178 377.48776500170226Q616.9576560719453 388.54067624476994 629.9814478740178 388.54067624476994ZM725.9420242806992 404.4408883221468L706.3930198170567 413.4430184430067Q704.4221392580519 414.2686575961033 703.5698665838876 414.2686575961033L703.5698665838876 414.2686575961033Q702.7442274307909 414.2686575961033 701.7854206723562 413.6294530904801L701.7854206723562 413.6294530904801Q699.6547389869455 412.1379759106927 696.8848527959117 406.27860127581346Q694.1149666048778 400.41922664093426 694.1149666048778 388.247707513026L694.1149666048778 388.247707513026L694.1149666048778 279.8226432466924Q694.1149666048778 277.5854274770112 695.0471398422451 276.36028550790013L695.0471398422451 276.36028550790013Q698.9889009602547 271.220015941847 706.57945446453 265.2274737016296L706.57945446453 265.2274737016296Q707.8844969968441 264.2686669431948 708.9232043184818 264.2686669431948L708.9232043184818 264.2686669431948Q710.1217127665252 264.2686669431948 711.2403206513659 265.2274737016296L711.2403206513659 265.2274737016296Q715.288615853646 268.316962145475 718.0318685236123 271.03358129437356Q720.8017547146461 273.7502004432721 722.7726352736508 276.36028550790013L722.7726352736508 276.36028550790013Q723.704808511018 277.5854274770112 723.704808511018 279.8226432466924L723.704808511018 279.8226432466924L723.704808511018 382.54813400455254Q723.704808511018 388.7271108922434 724.7435158326557 393.06837482626753Q725.7555896332258 397.4362722813593 727.1671662498103 400.04635734598736L727.1671662498103 400.04635734598736Q728.7651775138684 403.1358457898328 725.9420242806992 404.4408883221468L725.9420242806992 404.4408883221468ZM795.3489801829505 413.8158877379536L795.3489801829505 413.8158877379536Q771.7516805170278 413.8158877379536 757.9821501250616 401.2714993150985Q744.2126197330954 388.7271108922434 744.2126197330954 363.9046692572095L744.2126197330954 363.9046692572095Q744.2126197330954 338.4430231165524 758.4881870253466 325.84536765156207Q772.7637543175979 313.2477121865717 796.6540227152645 313.2477121865717L796.6540227152645 313.2477121865717Q819.692018438767 313.2477121865717 833.5414493939361 325.6589330040886Q847.3908803491054 338.0701538216056 847.3908803491054 362.22675742994863L847.3908803491054 362.22675742994863Q847.3908803491054 387.3954348388617 833.5414493939361 400.60566128840765Q819.692018438767 413.8158877379536 795.3489801829505 413.8158877379536ZM796.2811534203178 391.150761309398L796.2811534203178 391.150761309398Q806.5616925524241 391.150761309398 811.8084962027477 384.73208273209843Q817.0552998530715 378.3134041547989 817.0552998530715 362.7860613723689L817.0552998530715 362.7860613723689Q817.0552998530715 347.97782365876503 811.7552291606124 341.95864789748Q806.4817919892212 335.9128386151273 796.0947187728443 335.9128386151273L796.0947187728443 335.9128386151273Q786.0538813303467 335.9128386151273 780.3010407797381 342.41141775562977Q774.5482002291293 348.9366304171998 774.5482002291293 363.53179996226265L774.5482002291293 363.53179996226265Q774.5482002291293 378.79280753401633 780.0347055690617 384.9717844217071Q785.4945773879265 391.150761309398 796.2811534203178 391.150761309398ZM915.2797255505016 313.2477121865717L915.2797255505016 313.2477121865717Q926.4125373567722 313.2477121865717 931.4729063596225 315.0854251402384Q936.5332753624726 316.89650457283744 937.8383178947867 317.9352118944751L937.8383178947867 317.9352118944751Q939.915732538062 319.2402544267891 941.0343404229027 321.29103554899683L941.0343404229027 321.29103554899683Q941.6735449285259 322.3297428706345 942.52581760269 324.85992737205964Q943.3780902768543 327.3901118734848 943.7509595718011 330.37306623305966L943.7509595718011 330.37306623305966Q944.203729429951 332.71681608701135 943.8308601350041 333.7022563665138Q943.4579908400573 334.6876966460162 941.4871102810523 336.0992732626008L941.4871102810523 336.0992732626008Q939.2498945113712 337.5907504423882 936.5865424046079 338.762625369364Q933.9231902978446 339.9345002963399 932.2186449495161 340.41390367555726L932.2186449495161 340.41390367555726Q930.8337018539992 340.78677297050416 930.0613297430378 340.6003383230307Q929.3155911531442 340.41390367555726 928.0105486208301 339.4550969171225L928.0105486208301 339.4550969171225Q926.5190714410426 338.4430231165524 923.8024522921442 337.16461410530604Q921.0858331432455 335.9128386151273 916.3184328721393 335.9128386151273L916.3184328721393 335.9128386151273Q910.2193565476513 335.9128386151273 904.7594847287867 338.8957929747022Q899.2729793888542 341.90538085534473 895.8638886921972 347.89792309556213Q892.4281644744726 353.89046533577954 892.4281644744726 362.8659619355718L892.4281644744726 362.8659619355718Q892.4281644744726 376.3691571168617 899.512681078463 383.74664245259606Q906.5705641613856 391.150761309398 918.4757480786175 391.150761309398L918.4757480786175 391.150761309398Q924.5481908820377 391.150761309398 928.5698525632504 389.8989858192192Q932.5915142444629 388.62057680797284 934.9352640984147 387.3155342756588L934.9352640984147 387.3155342756588Q936.8262440942167 386.27682695402115 937.8116843737191 386.80949737537384Q938.7704911321538 387.3155342756588 939.3564285956418 388.62057680797284L939.3564285956418 388.62057680797284L946.1746099889557 404.0680190271999Q947.2133173105935 406.51830296542215 945.0560021041152 407.53037676599223L945.0560021041152 407.53037676599223Q941.5936443653229 409.31482267752364 933.6302215661008 411.57867196827243Q925.6667987668784 413.8158877379536 913.9746830181875 413.8158877379536L913.9746830181875 413.8158877379536Q890.4572839154678 413.8158877379536 876.4214183128252 401.3247663572337Q862.3855527101827 388.8070114554463 862.3855527101827 363.9046692572095L862.3855527101827 363.9046692572095Q862.3855527101827 347.97782365876503 868.8308648085498 336.658577205021Q875.3028104279846 325.33933075127703 887.1813608241489 319.2935214689244Q899.0865447413807 313.2477121865717 915.2797255505016 313.2477121865717ZM991.0254594668496 372.3208619145815L991.0254594668496 406.51830296542215Q991.0254594668496 409.31482267752364 989.8535845398737 410.40679704129656Q988.6817096128979 411.4721378840019 985.8851899007964 411.4721378840019L985.8851899007964 411.4721378840019L966.6025206478303 411.4721378840019Q963.7793674146611 411.4721378840019 962.6074924876852 410.40679704129656Q961.4356175607095 409.31482267752364 961.4356175607095 406.51830296542215L961.4356175607095 406.51830296542215L961.4356175607095 279.8226432466924Q961.4356175607095 277.5854274770112 962.3677907980766 276.36028550790013L962.3677907980766 276.36028550790013Q966.3095519160863 271.220015941847 973.9001054203616 265.2274737016296L973.9001054203616 265.2274737016296Q975.2051479526756 264.2686669431948 976.2438552743133 264.2686669431948L976.2438552743133 264.2686669431948Q977.4423637223568 264.2686669431948 978.5876051282651 265.2274737016296L978.5876051282651 265.2274737016296Q982.6092668094775 268.316962145475 985.3525194794438 271.03358129437356Q988.1224056704775 273.7502004432721 990.0932862294824 276.36028550790013L990.0932862294824 276.36028550790013Q991.0254594668496 277.5854274770112 991.0254594668496 279.8226432466924L991.0254594668496 279.8226432466924L991.0254594668496 353.33116139335925L992.1440673516902 353.33116139335925Q1006.3930011228738 353.33116139335925 1011.4800036467917 348.2175253483737Q1016.5936396917772 343.13052282445585 1016.5936396917772 334.048492140393L1016.5936396917772 334.048492140393L1016.5936396917772 328.98812313754274Q1016.5936396917772 326.72427384679395 1017.5258129291444 325.5257653987505L1017.5258129291444 325.5257653987505Q1021.4675740471541 320.3588623116297 1029.0581275514296 314.3663200714123L1029.0581275514296 314.3663200714123Q1030.3631700837436 313.4341468340451 1031.3752438843135 313.4341468340451L1031.3752438843135 313.4341468340451Q1032.6003858534245 313.4341468340451 1033.7189937382655 314.3663200714123L1033.7189937382655 314.3663200714123Q1037.7406554194777 317.45580851525773 1040.5105416105116 320.17242766415626Q1043.2804278015456 322.88904681305485 1045.2513083605504 325.5257653987505L1045.2513083605504 325.5257653987505Q1046.1834815979173 326.72427384679395 1046.1834815979173 328.98812313754274L1046.1834815979173 328.98812313754274L1046.1834815979173 334.048492140393Q1046.1834815979173 339.3751963539196 1044.0794334335746 345.8471419733544Q1041.9753852692315 352.2924540717216 1036.4356128871636 357.24628899030125Q1030.9224740261639 362.22675742994863 1020.7218354572603 363.05239658304527L1020.7218354572603 363.05239658304527L1020.7218354572603 363.53179996226265Q1028.5787241722119 366.9941577010549 1034.2782976806857 372.72036473059603Q1040.0045047102267 378.41993823906944 1043.8397317439658 384.9185173795719Q1047.674958777705 391.4437300411419 1049.779006942048 397.3830052392241Q1051.8830551063907 403.32228043730623 1052.5488931330815 407.4504762027893L1052.5488931330815 407.4504762027893Q1053.2147311597723 411.4721378840019 1049.8322739841833 411.4721378840019L1049.8322739841833 411.4721378840019L1025.1962669966229 411.4721378840019Q1022.0268779895744 411.4721378840019 1021.5474746103569 407.6369108502627L1021.5474746103569 407.6369108502627Q1020.9082701047337 403.2423798741033 1018.6976878561202 397.2764711549535Q1016.4871056075067 391.3371959568714 1012.8116797001733 385.63762244839796Q1009.1096202717722 379.9114154188569 1003.9160836635839 376.12945542725305Q998.6959135343279 372.3208619145815 992.1440673516902 372.3208619145815L992.1440673516902 372.3208619145815L991.0254594668496 372.3208619145815Z " fill="#8000ff" transform="matrix(0.8312288231300242,0,0,0.8312288231300244,0,17.99011024561112)"/></g></svg>